<svg xmlns="http://www.w3.org/2000/svg" version="1.1" xmlns:xlink="http://www.w3.org/1999/xlink" xmlns:svgjs="http://svgjs.dev/svgjs" width="1500" height="939" viewBox="0 0 1500 939"><g transform="matrix(1,0,0,1,-0.9090909090909918,-1.5145161290323017)"><svg viewBox="0 0 396 248" data-background-color="#000000" preserveAspectRatio="xMidYMid meet" height="939" width="1500" xmlns="http://www.w3.org/2000/svg" xmlns:xlink="http://www.w3.org/1999/xlink"><g id="tight-bounds" transform="matrix(1,0,0,1,0.2400000000000091,0.4000000000000057)"><svg viewBox="0 0 395.52 247.2" height="247.2" width="395.52"><g><svg></svg></g><g><svg viewBox="0 0 395.52 247.2" height="247.2" width="395.52"><g transform="matrix(1,0,0,1,77.9208732285763,47.215199999999996)"><svg viewBox="0 0 239.6782535428474 152.7696" height="152.7696" width="239.6782535428474"><g><svg viewBox="0 0 239.6782535428474 152.7696" height="152.7696" width="239.6782535428474"><g><svg viewBox="0 0 244.43135999999998 155.79920390224476" height="152.7696" width="239.6782535428474"><g><svg viewBox="0 0 244.43135999999998 155.79920390224476" height="155.79920390224476" width="244.43135999999998"><g id="textblocktransform"><svg viewBox="0 0 244.43135999999998 155.79920390224476" height="155.79920390224476" width="244.43135999999998" id="textblock"><g><svg viewBox="0 0 244.43135999999998 84.03064594021214" height="84.03064594021214" width="244.43135999999998"><g transform="matrix(1,0,0,1,0,0)"><svg width="244.43135999999998" viewBox="1.95 -35.15 103.69 35.65" height="84.03064594021214" data-palette-color="#ffffff"><path d="M23.8-35.15L29.4-34.85 34.2-35.15Q34.35-35 34.35-34.25 34.35-33.5 34.1-33.25L34.1-33.25Q30.7-33.25 30.8-30.9L30.8-30.9 31.75-4.5Q31.8-3.15 32.52-2.53 33.25-1.9 35.05-1.9L35.05-1.9Q35.3-1.65 35.3-0.88 35.3-0.1 35.2 0L35.2 0 29.6-0.3 23.7 0Q23.55-0.15 23.55-0.88 23.55-1.6 23.85-1.9L23.85-1.9Q25.65-1.9 26.43-2.53 27.2-3.15 27.2-4.5L27.2-4.5 27.3-16.85 9.8-16.85 10.15-4.5Q10.2-3.15 10.93-2.53 11.65-1.9 13.45-1.9L13.45-1.9Q13.7-1.65 13.7-0.88 13.7-0.1 13.6 0L13.6 0 8.05-0.3 2.1 0Q1.95-0.15 1.95-0.88 1.95-1.6 2.25-1.9L2.25-1.9Q4.05-1.9 4.8-2.53 5.55-3.15 5.6-4.5L5.6-4.5 6.15-30.65Q6.2-32 5.4-32.63 4.6-33.25 2.8-33.25L2.8-33.25Q2.45-33.5 2.45-34.27 2.45-35.05 2.55-35.15L2.55-35.15 8.15-34.85 12.95-35.15Q13.1-35 13.1-34.25 13.1-33.5 12.85-33.25L12.85-33.25Q11-33.25 10.25-32.63 9.5-32 9.55-30.65L9.55-30.65 9.75-19.75 27.3-19.75 27.4-30.65Q27.4-32 26.63-32.63 25.85-33.25 24.05-33.25L24.05-33.25Q23.7-33.5 23.7-34.27 23.7-35.05 23.8-35.15L23.8-35.15ZM58.75-2.95L58.75-2.95Q55.3 0.5 50.12 0.5 44.95 0.5 42.15-3.03 39.35-6.55 39.35-11.98 39.35-17.4 42.12-20.95 44.9-24.5 49.77-24.5 54.65-24.5 56.97-21.08 59.3-17.65 59.3-12.25L59.3-12.25 43.75-12.25Q43.75-8.2 45.52-5.43 47.3-2.65 50.6-2.65L50.6-2.65Q55.1-2.65 58.2-4.9L58.2-4.9Q58.4-4.75 58.7-4.2 59-3.65 59-3.43 59-3.2 58.75-2.95ZM43.8-14.85L43.8-14.85 50.85-14.8Q54.65-14.8 54.9-15.1L54.9-15.1Q54.95-15.35 54.95-15.95L54.95-15.95Q54.95-18.3 53.6-20.2 52.25-22.1 49.72-22.1 47.2-22.1 45.62-20.13 44.05-18.15 43.8-14.85ZM75.4 0L69.4-0.3 63.05 0Q62.9-0.15 62.9-0.83 62.9-1.5 63.2-1.8L63.2-1.8Q65.2-1.8 66.12-2.38 67.05-2.95 67.05-4.35L67.05-4.35 67.2-18.35Q67.2-19.75 66.27-20.33 65.34-20.9 63.3-20.9L63.3-20.9Q63.15-21.05 63.15-21.73 63.15-22.4 63.45-22.7L63.45-22.7Q63.65-22.7 64.4-22.8 65.15-22.9 65.34-22.93 65.55-22.95 66.12-23.08 66.7-23.2 67-23.4L67-23.4Q68-23.95 68.37-24.33 68.75-24.7 69.4-24.7 70.05-24.7 70.34-24.5L70.34-24.5 70.84-19.3Q71.75-21.3 73.77-22.9 75.8-24.5 78.09-24.5L78.09-24.5Q79.45-24.5 80.37-23.63 81.3-22.75 81.3-21.53 81.3-20.3 80.59-19.58 79.9-18.85 78.8-18.85L78.8-18.85Q76.4-18.85 76.4-20.55L76.4-20.55Q76.4-21 76.65-21.35 76.9-21.7 76.9-21.85 76.9-22 76.55-22L76.55-22Q75.3-22 73.17-19.2 71.05-16.4 71.09-14.1L71.09-14.1 71.45-4.35Q71.5-2.95 72.37-2.38 73.25-1.8 75.25-1.8L75.25-1.8Q75.5-1.55 75.5-0.83 75.5-0.1 75.4 0L75.4 0ZM90.39 0.5Q87.64 0.5 85.74-1.28 83.84-3.05 83.84-5.8 83.84-8.55 86.17-10.38 88.49-12.2 93.89-13.3L93.89-13.3 97.34-14 97.34-15.25Q97.34-18.75 96.17-20.33 94.99-21.9 92.24-21.9L92.24-21.9Q88.44-21.9 88.44-20.35L88.44-20.35Q88.44-20.05 89.04-19.38 89.64-18.7 89.64-17.93 89.64-17.15 88.97-16.68 88.29-16.2 87.19-16.2 86.09-16.2 85.42-16.85 84.74-17.5 84.74-18.65L84.74-18.65Q84.74-21.2 87.22-22.85 89.69-24.5 92.59-24.5L92.59-24.5Q97.29-24.5 99.29-22.53 101.29-20.55 101.29-17.25L101.29-17.25Q101.29-17.15 101.09-5.4L101.09-5.4Q101.04-2.2 103.24-2.2L103.24-2.2Q104.14-2.2 105.29-2.7L105.29-2.7Q105.64-2.1 105.64-1.58 105.64-1.05 105.54-0.95L105.54-0.95Q105.04-0.45 103.79 0.03 102.54 0.5 101.14 0.5L101.14 0.5Q98.99 0.5 97.54-2.2L97.54-2.2Q94.39 0.5 90.39 0.5L90.39 0.5ZM94.79-10.75Q90.94-9.8 89.67-8.83 88.39-7.85 88.39-6.18 88.39-4.5 89.29-3.45 90.19-2.4 91.49-2.4 92.79-2.4 94.52-2.98 96.24-3.55 97.49-4.3L97.49-4.3 97.39-11.4 94.79-10.75Z" opacity="1" transform="matrix(1,0,0,1,0,0)" fill="#ffffff" class="wordmark-text-0" data-fill-palette-color="primary" id="text-0"></path></svg></g></svg></g><g transform="matrix(1,0,0,1,0,103.86826471119366)"><svg viewBox="0 0 244.43135999999998 51.93093919105111" height="51.93093919105111" width="244.43135999999998"><g transform="matrix(1,0,0,1,0,0)"><svg width="244.43135999999998" viewBox="2.6 -38.35 182.86 38.85" height="51.93093919105111" data-palette-color="#ffffff"><path d="M25.25-6L25.25-6 25.3-9.85Q25.3-12.35 24.18-13.13 23.05-13.9 18.55-14.25L18.55-14.25Q18.35-14.4 18.35-15.2 18.35-16 18.55-16.2L18.55-16.2Q21.35-16 26.05-16 30.75-16 33.6-16.2L33.6-16.2Q33.8-15.9 33.8-15.18 33.8-14.45 33.6-14.25L33.6-14.25Q30.9-13.95 30.3-13.25 29.7-12.55 29.7-10.55L29.7-10.55 29.7-3.4Q26.7-1.4 24.08-0.45 21.45 0.5 17.45 0.5L17.45 0.5Q10.25 0.5 6.43-4.63 2.6-9.75 2.6-17.5 2.6-25.25 7-30.45 11.4-35.65 18.9-35.65L18.9-35.65Q23.25-35.65 26.45-34L26.45-34Q26.65-33.9 26.83-33.9 27-33.9 27.05-34.35L27.05-34.35 27.2-35.45Q27.4-35.65 28.1-35.65 28.8-35.65 29.1-35.45L29.1-35.45 29.8-25.65Q29.6-25.45 28.83-25.45 28.05-25.45 27.9-25.65L27.9-25.65Q27.45-29.1 24.95-30.9 22.45-32.7 19-32.7L19-32.7Q7.1-32.7 7.1-19.25L7.1-19.25Q7.1-15.45 8.38-11.8 9.65-8.15 12.33-5.55 15-2.95 18.5-2.95 22-2.95 25.2-4.25L25.2-4.25Q25.25-4.35 25.25-6ZM56.86-2.95L56.86-2.95Q53.41 0.5 48.23 0.5 43.06 0.5 40.26-3.03 37.46-6.55 37.46-11.98 37.46-17.4 40.23-20.95 43.01-24.5 47.88-24.5 52.76-24.5 55.08-21.08 57.41-17.65 57.41-12.25L57.41-12.25 41.86-12.25Q41.86-8.2 43.63-5.43 45.41-2.65 48.71-2.65L48.71-2.65Q53.21-2.65 56.31-4.9L56.31-4.9Q56.51-4.75 56.81-4.2 57.11-3.65 57.11-3.43 57.11-3.2 56.86-2.95ZM41.91-14.85L41.91-14.85 48.96-14.8Q52.76-14.8 53.01-15.1L53.01-15.1Q53.06-15.35 53.06-15.95L53.06-15.95Q53.06-18.3 51.71-20.2 50.36-22.1 47.83-22.1 45.31-22.1 43.73-20.13 42.16-18.15 41.91-14.85ZM71.57-24.5L71.57-24.5Q74.27-24.5 76.22-23.23 78.17-21.95 78.17-20.05L78.17-20.05Q78.17-18.9 77.49-18.2 76.82-17.5 75.79-17.5 74.77-17.5 74.09-17.95 73.42-18.4 73.42-19.13 73.42-19.85 73.62-20.3 73.82-20.75 73.82-21.05L73.82-21.05Q73.82-22.15 71.52-22.15 69.22-22.15 67.89-21.15 66.57-20.15 66.57-18.75 66.57-17.35 67.87-16.2 69.17-15.05 71.02-14.1 72.87-13.15 74.72-12.13 76.57-11.1 77.87-9.55 79.17-8 79.17-6.1L79.17-6.1Q79.17-2.9 76.49-1.2 73.82 0.5 70.27 0.5 66.72 0.5 64.29-1.15 61.87-2.8 61.87-6L61.87-6Q61.87-7.1 62.52-7.78 63.17-8.45 64.32-8.45L64.32-8.45Q66.77-8.45 66.77-6.75L66.77-6.75Q66.77-5.95 66.17-5.25 65.57-4.55 65.57-4.3L65.57-4.3Q65.57-3.4 66.99-2.75 68.42-2.1 70.12-2.1 71.82-2.1 73.52-2.98 75.22-3.85 75.22-5.75L75.22-5.75Q75.22-7.7 70.82-9.7L70.82-9.7Q68.97-10.5 67.12-11.43 65.27-12.35 63.99-13.93 62.72-15.5 62.72-17.5L62.72-17.5Q62.72-20.8 65.14-22.65 67.57-24.5 71.57-24.5ZM90.03-8.7Q90.08-5.45 90.75-4.03 91.43-2.6 93.4-2.6 95.38-2.6 97.83-3.95L97.83-3.95Q98.03-3.75 98.33-3.2 98.63-2.65 98.63-2.45 98.63-2.25 98.58-2.2L98.58-2.2Q95.68 0.5 91.83 0.5L91.83 0.5Q85.78 0.5 85.78-7.75L85.78-7.75Q85.78-8 86.03-20.9L86.03-20.9 82.88-20.9Q82.58-21.2 82.58-21.88 82.58-22.55 82.73-22.7L82.73-22.7Q85.33-23.3 86.4-24.63 87.48-25.95 87.93-28.3L87.93-28.3Q88.13-28.5 88.78-28.5 89.43-28.5 89.73-28.3L89.73-28.3 89.83-23.5 97.43-23.5Q97.68-22.8 97.68-22.05 97.68-21.3 97.28-20.9L97.28-20.9 89.83-20.9 90.03-8.7ZM104.41-3.03Q101.79-6.55 101.79-12 101.79-17.45 104.41-20.98 107.04-24.5 112.34-24.5 117.64-24.5 120.41-20.95 123.19-17.4 123.19-12 123.19-6.6 120.41-3.05 117.64 0.5 112.34 0.5 107.04 0.5 104.41-3.03ZM117.84-4.9L117.84-4.9Q118.94-7.2 118.94-11.55 118.94-15.9 117.21-19 115.49-22.1 112.24-22.1L112.24-22.1Q107.84-22.1 106.64-18.15L106.64-18.15Q106.04-16.05 106.04-12.9L106.04-12.9Q106.04-8.15 107.76-5.18 109.49-2.2 113.04-2.2 116.59-2.2 117.84-4.9ZM139.64 0L133.64-0.3 127.29 0Q127.14-0.15 127.14-0.83 127.14-1.5 127.44-1.8L127.44-1.8Q129.44-1.8 130.37-2.38 131.29-2.95 131.29-4.35L131.29-4.35 131.44-18.35Q131.44-19.75 130.52-20.33 129.59-20.9 127.54-20.9L127.54-20.9Q127.39-21.05 127.39-21.73 127.39-22.4 127.69-22.7L127.69-22.7Q127.89-22.7 128.64-22.8 129.39-22.9 129.59-22.93 129.79-22.95 130.37-23.08 130.94-23.2 131.24-23.4L131.24-23.4Q132.24-23.95 132.62-24.33 132.99-24.7 133.64-24.7 134.29-24.7 134.59-24.5L134.59-24.5 135.09-19.3Q135.99-21.3 138.02-22.9 140.04-24.5 142.34-24.5L142.34-24.5Q143.69-24.5 144.62-23.63 145.54-22.75 145.54-21.53 145.54-20.3 144.84-19.58 144.14-18.85 143.04-18.85L143.04-18.85Q140.64-18.85 140.64-20.55L140.64-20.55Q140.64-21 140.89-21.35 141.14-21.7 141.14-21.85 141.14-22 140.79-22L140.79-22Q139.54-22 137.42-19.2 135.29-16.4 135.34-14.1L135.34-14.1 135.69-4.35Q135.74-2.95 136.62-2.38 137.49-1.8 139.49-1.8L139.49-1.8Q139.74-1.55 139.74-0.83 139.74-0.1 139.64 0L139.64 0ZM160.6 0L154.6-0.3 148.25 0Q148.1-0.15 148.1-0.83 148.1-1.5 148.4-1.8L148.4-1.8Q150.4-1.8 151.33-2.38 152.25-2.95 152.25-4.35L152.25-4.35 152.3-17.9Q152.3-20.45 148.15-20.45L148.15-20.45Q148-20.6 148-21.28 148-21.95 148.3-22.25L148.3-22.25Q149.85-22.25 151.25-22.63 152.65-23 153.13-23.28 153.6-23.55 153.93-23.88 154.25-24.2 154.9-24.2 155.55-24.2 155.85-24L155.85-24 156.65-4.35Q156.7-2.95 157.58-2.38 158.45-1.8 160.45-1.8L160.45-1.8Q160.7-1.55 160.7-0.83 160.7-0.1 160.6 0L160.6 0ZM158.7-34.7L158.7-34.7Q158.7-34.1 154.58-31.38 150.45-28.65 150.18-28.65 149.9-28.65 149.65-29L149.65-29Q149.2-29.7 149.1-30.45L149.1-30.45Q154.15-34.75 156-38.35L156-38.35Q157.15-38.35 157.93-36.88 158.7-35.4 158.7-34.7ZM170.21 0.5Q167.46 0.5 165.56-1.28 163.66-3.05 163.66-5.8 163.66-8.55 165.99-10.38 168.31-12.2 173.71-13.3L173.71-13.3 177.16-14 177.16-15.25Q177.16-18.75 175.99-20.33 174.81-21.9 172.06-21.9L172.06-21.9Q168.26-21.9 168.26-20.35L168.26-20.35Q168.26-20.05 168.86-19.38 169.46-18.7 169.46-17.93 169.46-17.15 168.79-16.68 168.11-16.2 167.01-16.2 165.91-16.2 165.24-16.85 164.56-17.5 164.56-18.65L164.56-18.65Q164.56-21.2 167.04-22.85 169.51-24.5 172.41-24.5L172.41-24.5Q177.11-24.5 179.11-22.53 181.11-20.55 181.11-17.25L181.11-17.25Q181.11-17.15 180.91-5.4L180.91-5.4Q180.86-2.2 183.06-2.2L183.06-2.2Q183.96-2.2 185.11-2.7L185.11-2.7Q185.46-2.1 185.46-1.58 185.46-1.05 185.36-0.95L185.36-0.95Q184.86-0.45 183.61 0.03 182.36 0.5 180.96 0.5L180.96 0.5Q178.81 0.5 177.36-2.2L177.36-2.2Q174.21 0.5 170.21 0.5L170.21 0.5ZM174.61-10.75Q170.76-9.8 169.49-8.83 168.21-7.85 168.21-6.18 168.21-4.5 169.11-3.45 170.01-2.4 171.31-2.4 172.61-2.4 174.34-2.98 176.06-3.55 177.31-4.3L177.31-4.3 177.21-11.4 174.61-10.75Z" opacity="1" transform="matrix(1,0,0,1,0,0)" fill="#ffffff" class="slogan-text-1" data-fill-palette-color="secondary" id="text-1"></path></svg></g></svg></g></svg></g></svg></g></svg></g></svg></g></svg></g><path d="M253.876 41.215L253.876 0 6.676 0 6.676 247.2 253.876 247.2 253.876 205.985 246.445 205.985 246.445 239.769 14.106 239.769 14.106 7.431 246.445 7.431 246.445 41.215Z" fill="#ffffff" stroke="transparent" data-fill-palette-color="tertiary"></path></svg></g><defs></defs></svg><rect width="395.52" height="247.2" fill="none" stroke="none" visibility="hidden"></rect></g></svg></g></svg>